<svg width="146" height="35" viewBox="0 0 146 35" fill="none" xmlns="http://www.w3.org/2000/svg">
<path d="M64.156 28V8.064H72.696C74.9547 8.064 76.672 8.55867 77.848 9.548C79.024 10.5373 79.612 11.956 79.612 13.804C79.612 15.5587 79.0053 16.9587 77.792 18.004C76.5787 19.0307 74.8893 19.544 72.724 19.544L74.964 19.096C75.6547 19.096 76.2707 19.3013 76.812 19.712C77.3533 20.1227 77.7827 20.7573 78.1 21.616L80.564 28H76.756L74.236 21.364C73.9747 20.7107 73.6013 20.272 73.116 20.048C72.6493 19.824 72.0613 19.712 71.352 19.712H67.712V28H64.156ZM67.684 16.912H72.192C73.5733 16.912 74.5813 16.66 75.216 16.156C75.8507 15.652 76.168 14.896 76.168 13.888C76.168 12.8613 75.8507 12.1053 75.216 11.62C74.5813 11.1347 73.5733 10.892 72.192 10.892H67.684V16.912ZM89.9762 28.196C88.5015 28.196 87.2228 27.8973 86.1402 27.3C85.0762 26.7027 84.2548 25.8627 83.6762 24.78C83.0975 23.6787 82.8082 22.372 82.8082 20.86C82.8082 19.3667 83.0975 18.0693 83.6762 16.968C84.2548 15.848 85.0762 14.9893 86.1402 14.392C87.2228 13.7947 88.5015 13.496 89.9762 13.496C91.4135 13.496 92.6642 13.7947 93.7282 14.392C94.8108 14.9893 95.6415 15.848 96.2202 16.968C96.8175 18.0693 97.1162 19.3667 97.1162 20.86C97.1162 22.372 96.8175 23.6787 96.2202 24.78C95.6415 25.8627 94.8108 26.7027 93.7282 27.3C92.6642 27.8973 91.4135 28.196 89.9762 28.196ZM89.9762 25.508C91.1335 25.508 92.0202 25.1253 92.6362 24.36C93.2708 23.576 93.5882 22.4093 93.5882 20.86C93.5882 19.3293 93.2708 18.1813 92.6362 17.416C92.0202 16.632 91.1335 16.24 89.9762 16.24C88.8002 16.24 87.8855 16.632 87.2322 17.416C86.5975 18.1813 86.2802 19.3293 86.2802 20.86C86.2802 22.4093 86.5975 23.576 87.2322 24.36C87.8668 25.1253 88.7815 25.508 89.9762 25.508ZM106.518 28.196C105.044 28.196 103.765 27.9067 102.682 27.328C101.618 26.7307 100.797 25.8907 100.218 24.808C99.6585 23.7067 99.3785 22.4187 99.3785 20.944C99.3785 19.4507 99.6771 18.144 100.274 17.024C100.872 15.904 101.721 15.036 102.822 14.42C103.924 13.804 105.212 13.496 106.686 13.496C107.676 13.496 108.637 13.6547 109.57 13.972C110.522 14.2893 111.297 14.728 111.894 15.288L110.886 17.752C110.289 17.2667 109.654 16.9027 108.982 16.66C108.31 16.3987 107.638 16.268 106.966 16.268C105.734 16.268 104.754 16.66 104.026 17.444C103.317 18.228 102.962 19.376 102.962 20.888C102.962 22.3813 103.317 23.52 104.026 24.304C104.736 25.088 105.725 25.48 106.994 25.48C107.648 25.48 108.31 25.3587 108.982 25.116C109.654 24.8547 110.289 24.472 110.886 23.968L111.894 26.432C111.278 26.992 110.485 27.4307 109.514 27.748C108.562 28.0467 107.564 28.196 106.518 28.196ZM123.904 28L117.1 20.804L123.54 13.888H127.796L120.488 21.616L120.656 19.852L128.272 28H123.904ZM114.216 28V7.392H117.716V28H114.216ZM129.665 28V13.86H133.165V28H129.665ZM129.497 7.448H133.389V10.892H129.497V7.448ZM135.203 16.492V13.86H145.171V16.492H135.203ZM145.171 25.088V27.86C144.797 27.9907 144.424 28.0747 144.051 28.112C143.696 28.168 143.313 28.196 142.903 28.196C141.316 28.196 140.084 27.748 139.207 26.852C138.348 25.956 137.919 24.668 137.919 22.988V10.416L141.419 9.24V22.82C141.419 23.4547 141.521 23.9587 141.727 24.332C141.932 24.6867 142.203 24.9387 142.539 25.088C142.893 25.2373 143.285 25.312 143.715 25.312C143.957 25.312 144.191 25.2933 144.415 25.256C144.639 25.2187 144.891 25.1627 145.171 25.088Z" fill="white"/>
<circle cx="25.5" cy="17.5" r="15.5" fill="white"/>
<path d="M46.5722 27.1443C42.4617 27.0943 38.5316 26.05 35.6466 24.2412C32.7615 22.4323 31.1579 20.0071 31.1884 17.4989C31.2189 14.9908 32.881 12.6053 35.8092 10.8671C38.7373 9.1289 42.6916 8.18047 46.8022 8.23045L46.6872 17.6874L46.5722 27.1443Z" fill="#FFA500"/>
<path d="M23.5 33C17.2674 33 11.2901 31.367 6.88299 28.4602C2.47589 25.5533 0 21.6109 0 17.5C0 13.3891 2.47588 9.44666 6.88299 6.53985C11.2901 3.63303 17.2674 2 23.5 2L23.5 17.5L23.5 33Z" fill="#FFA500"/>
</svg>
