<svg width="44" height="44" viewBox="0 0 44 44" fill="none" xmlns="http://www.w3.org/2000/svg">
<path fill-rule="evenodd" clip-rule="evenodd" d="M43.6835 22.0858C43.6835 34.1484 33.9047 43.9275 21.8417 43.9275C9.77876 43.9275 0 34.1484 0 22.0858C0 10.0228 9.77876 0.244049 21.8417 0.244049C33.9047 0.244049 43.6835 10.0228 43.6835 22.0858Z" fill="#FFA500"/>
<mask id="mask0" mask-type="alpha" maskUnits="userSpaceOnUse" x="2" y="4" width="41" height="41">
<path d="M42.22 24.11C42.22 29.4435 40.1013 34.5586 36.3299 38.3299C32.5586 42.1013 27.4435 44.22 22.11 44.22C16.7765 44.22 11.6614 42.1013 7.89008 38.3299C4.11872 34.5586 2 29.4435 2 24.11C2 18.7765 4.11872 13.6614 7.89008 9.89008C11.6614 6.11872 16.7765 4 22.11 4C27.4435 4 32.5586 6.11872 36.3299 9.89008C40.1013 13.6614 42.22 18.7765 42.22 24.11Z" fill="white"/>
</mask>
<g mask="url(#mask0)">
<path d="M24.0045 39.8657C22.7144 40.9462 20.002 39.8657 20.002 39.8657C20.2239 39.3998 20.3687 38.9009 20.4309 38.3886C20.4403 38.3417 20.4468 38.2943 20.4503 38.2467C20.5001 37.8423 20.5195 37.4348 20.5083 37.0275C20.5083 36.7824 20.5083 36.5373 20.4696 36.3018C20.4099 35.5695 20.2891 34.8435 20.1084 34.1313L23.5723 34.0248C23.3648 34.765 23.2819 35.5345 23.3272 36.3018C23.3272 36.6566 23.3756 37.0049 23.4175 37.3339C23.4594 37.6629 23.5046 37.9145 23.5594 38.1789L23.5884 38.3144C23.6945 38.8397 23.8335 39.3578 24.0045 39.8657Z" fill="#CD8B6D"/>
<path d="M12.4129 44.4939C12.371 44.2843 13.8513 40.8849 17.4765 39.4948C18.0137 39.2886 18.5701 39.1362 19.1375 39.04C19.9145 38.9143 20.7036 38.8796 21.4887 38.9368C22.9502 39.0193 24.4011 39.2352 25.8234 39.5819C26.5878 39.7733 27.3304 40.0435 28.0391 40.3882C30.1645 41.4332 31.3482 43.0651 31.9739 45.426C33.0737 49.5801 13.6643 50.9121 12.4129 44.4939Z" fill="#CD8B6D"/>
<path d="M12.4129 44.4939C12.3742 44.2972 13.6707 41.3009 16.8185 39.7819C17.0281 39.6786 17.2475 39.5819 17.4636 39.4948C19.9276 40.9687 25.2557 43.3006 28.0262 40.3946C28.4453 40.6001 28.8457 40.8419 29.2227 41.1171C30.616 42.1427 31.4804 43.5586 31.9609 45.4324C33.0736 49.5801 13.6642 50.9121 12.4129 44.4939Z" fill="#55418E"/>
<path d="M29.2393 41.1171C26.9558 44.3101 20.2086 41.5267 16.8189 39.7819C17.0286 39.6786 17.2479 39.5819 17.464 39.4948C19.9281 40.9687 25.2561 43.3006 28.0266 40.3946C28.4513 40.5993 28.8571 40.8411 29.2393 41.1171Z" fill="white"/>
<path d="M30.1035 24.6846C30.2578 24.4787 30.4684 24.3219 30.7098 24.2331C30.9339 24.14 31.1675 24.0719 31.4065 24.0299C31.8741 23.9364 32.445 23.9299 32.7772 24.3331C32.9898 24.6591 33.102 25.0404 33.0997 25.4296C33.1707 27.0197 31.8322 27.9001 30.4583 28.2775C30.197 28.3484 29.7455 28.6 29.552 28.3001C29.2327 27.7582 29.71 25.2555 30.1035 24.6846Z" fill="#CD8B6D"/>
<path d="M30.1004 25.8876C30.1004 25.8876 31.7839 24.3266 32.0097 25.1877C32.1334 25.7874 32.0865 26.4098 31.8742 26.9842C31.8742 26.9842 31.9 25.865 30.9647 26.2682C30.9647 26.2682 31.2872 28.1485 29.8714 27.2712C29.7297 27.0537 29.6747 26.791 29.717 26.5349C29.7594 26.2788 29.8962 26.0479 30.1004 25.8876Z" fill="#B66C50"/>
<path d="M13.9903 24.6846C13.836 24.4787 13.6254 24.3219 13.3839 24.2331C13.1599 24.14 12.9263 24.0719 12.6873 24.0299C12.2196 23.9364 11.6488 23.9299 11.3166 24.3331C11.104 24.6591 10.9918 25.0404 10.9941 25.4296C10.9231 27.0197 12.2648 27.9001 13.6355 28.2775C13.8968 28.3484 14.3483 28.6 14.5418 28.3001C14.8643 27.7582 14.387 25.2555 13.9903 24.6846Z" fill="#CD8B6D"/>
<path d="M13.9967 25.8876C13.9967 25.8876 12.3131 24.3266 12.0842 25.1877C11.9625 25.7878 12.0105 26.4099 12.2228 26.9842C12.2228 26.9842 12.1938 25.865 13.1291 26.2682C13.1291 26.2682 12.8066 28.1485 14.2225 27.2712C14.3652 27.0543 14.4212 26.7917 14.3794 26.5354C14.3376 26.2791 14.201 26.0479 13.9967 25.8876Z" fill="#B66C50"/>
<path d="M30.5804 23.3558C30.5482 23.6622 30.5095 23.9718 30.4676 24.2847C30.2217 26.2711 29.8621 28.2417 29.3903 30.1868C28.4615 33.8442 23.9365 35.6407 22.3239 35.5181C14.0157 34.4022 13.5835 28.7 13.6416 28.0775C13.7416 27.11 13.5706 26.0553 13.5094 25.0878C13.4739 24.5717 13.3997 24.0428 13.3255 23.5139C13.1638 22.6287 13.1334 21.7245 13.2352 20.8305C13.2399 20.787 13.2474 20.7439 13.2578 20.7015C13.4226 19.8047 13.6821 18.9279 14.0318 18.0858C15.0865 15.5056 17.2184 12.6481 20.263 12.6029C20.9883 12.5972 21.7099 12.706 22.4013 12.9255C23.4054 13.2446 24.3663 13.6865 25.2621 14.2413C27.1778 15.3992 29.0904 16.7183 30.0483 18.8276C30.7191 20.3015 30.7385 21.8013 30.5804 23.3558Z" fill="#FFC29C"/>
<path d="M15.0512 11.3354C14.5889 11.6981 14.1632 12.1054 13.7805 12.5513C13.4417 12.9415 13.1434 13.3651 12.8903 13.8156C12.0744 15.3059 11.6955 16.9961 11.797 18.6921L11.8389 19.3727C11.9839 20.7855 12.3091 22.1739 12.8065 23.5042C12.8936 23.7428 12.9871 23.9815 13.0806 24.2202C13.0898 24.242 13.1017 24.2626 13.1161 24.2814C13.1485 24.3351 13.1975 24.3768 13.2556 24.4004C13.3137 24.4239 13.3779 24.428 13.4385 24.412C13.4992 24.3961 13.553 24.3609 13.592 24.3118C13.6309 24.2626 13.653 24.2022 13.6547 24.1395C13.8063 22.4882 13.9321 21.2626 15.0706 19.9467C15.935 18.9598 17.0057 18.1245 17.9346 17.2085C18.7501 16.4287 19.4496 15.5359 20.0116 14.5574L20.1439 14.3123C20.4193 13.7889 20.6408 13.2388 20.805 12.6707C20.991 12.3489 21.207 12.0454 21.4501 11.7644C21.5356 11.7644 21.6177 11.7304 21.6781 11.6699C21.7386 11.6094 21.7726 11.5274 21.7726 11.4418C21.6952 7.55223 16.6735 10.0614 15.0512 11.3354Z" fill="black"/>
<path d="M20.1343 14.3349L20.0021 14.58C17.8702 14.3897 15.6351 16.9796 14.6869 18.6309C13.6323 20.4692 13.4388 22.2689 13.1066 24.2879C13.0922 24.2691 13.0802 24.2485 13.0711 24.2266C12.9776 23.988 12.884 23.7493 12.7969 23.5106C12.861 21.1868 13.7141 18.954 15.2159 17.1795C16.3737 15.8249 18.1573 13.6318 20.1343 14.3349Z" fill="black"/>
<path d="M11.7973 18.6953C12.1045 18.155 12.4596 17.6433 12.8584 17.1666C14.7323 14.9476 17.7737 11.9321 20.8634 11.8579C20.9731 11.8579 20.9699 12.0191 20.8634 12.0288C18.0865 12.2739 15.1516 15.0089 13.4454 17.0698C12.8476 17.7921 12.3135 18.5647 11.8489 19.3791L11.7973 18.6953Z" fill="black"/>
<path d="M20.9438 11.6644C19.5731 11.6354 18.0411 11.1484 16.6994 11.6128C15.3602 12.0637 14.119 12.7653 13.042 13.6802L12.8904 13.8156C13.1435 13.3651 13.4418 12.9415 13.7806 12.5513C13.829 12.5159 13.8741 12.4868 13.9225 12.4578C14.8643 11.8579 16.0511 11.1451 17.1896 11.0323C18.4797 10.9033 19.6924 11.2387 20.9728 11.4386C21.1018 11.458 21.0696 11.6644 20.9438 11.6644Z" fill="black"/>
<path d="M32.9706 19.7855C32.948 18.2245 32.2804 16.8989 31.6322 15.425L31.3387 14.7251C31.2645 14.5477 31.1935 14.3671 31.1258 14.1801C30.7323 13.1222 30.442 12.0482 30.0453 11.0258L29.7228 10.2872C29.4005 9.57843 28.9756 8.92097 28.4618 8.33595C27.2813 7.02329 25.7429 6.75882 24.2335 7.18455C24.1077 7.22325 23.9852 7.26195 23.8594 7.30711C23.5403 7.42095 23.2307 7.56008 22.9337 7.72316C22.7228 7.83889 22.5182 7.96593 22.3209 8.10374C22.1952 8.18437 22.0726 8.26822 21.9533 8.36175C21.3663 8.79393 20.8148 9.28739 20.2761 9.75828L20.0536 9.94856C19.515 10.3807 18.8474 10.7355 18.283 11.1645L18.1411 11.2741C17.9376 11.4336 17.7517 11.6141 17.5863 11.8127C17.5519 11.7574 17.5036 11.7119 17.4462 11.6809C17.3889 11.65 17.3244 11.6345 17.2592 11.6362C17.194 11.6378 17.1304 11.6564 17.0746 11.6902C17.0188 11.724 16.9729 11.7718 16.9413 11.8289C16.1769 13.3899 17.1638 15.1508 17.9733 16.5183C19.1409 18.5051 20.7309 19.1662 22.9531 19.692C24.2857 19.9846 25.5615 20.4934 26.7298 21.1981C27.2684 21.5207 27.7909 21.9077 28.3166 22.2592C28.6905 22.5084 29.0346 22.7995 29.3422 23.1268C29.5454 23.3236 29.7357 23.8944 29.9873 24.0944C30.8516 24.7394 31.5128 24.2137 31.9772 23.4268C32.0417 23.3171 32.103 23.2074 32.1611 23.1042C32.4002 22.5987 32.5945 22.0731 32.7416 21.5336C32.8512 21.1523 32.9235 20.7613 32.9577 20.366C32.9721 20.1729 32.9764 19.9791 32.9706 19.7855Z" fill="black"/>
<path d="M18.2897 11.1613C20.0474 15.138 25.0433 16.6828 28.6556 18.9469C30.0714 19.8306 31.455 20.9659 32.0098 22.5979C32.0678 22.7624 32.1194 22.9204 32.1614 23.0881C32.1033 23.2042 32.042 23.3139 31.9775 23.4106C31.7665 22.4939 31.3221 21.6473 30.6874 20.953C29.1619 19.2953 27.0139 18.3277 25.0433 17.2988C22.1987 15.812 19.3766 14.0736 18.1446 11.258L18.2897 11.1613Z" fill="black"/>
<path d="M20.0601 9.94534C20.3052 10.3324 20.5665 10.6936 20.8213 11.0322C22.1114 12.7771 24.0304 13.9027 25.8784 14.9767C28.5166 16.5054 31.2516 18.0181 32.9578 20.3499C32.9673 20.1619 32.9673 19.9735 32.9578 19.7855C31.6483 18.1729 29.7648 16.9215 27.9845 15.8636C25.9558 14.6542 23.8175 13.606 22.0662 11.9934C21.3586 11.3403 20.753 10.5847 20.2698 9.75183L20.0601 9.94534Z" fill="black"/>
<path d="M31.6322 15.425C31.1325 15.0798 30.5905 14.8001 30.0196 14.5929C28.3134 13.9479 26.3686 13.4737 24.914 12.3127C23.6155 11.2596 22.5982 9.90104 21.9533 8.35855C22.0726 8.26502 22.1952 8.18116 22.3209 8.10052C22.6294 8.82711 23.0247 9.5137 23.4982 10.1453C24.8528 11.9676 26.6202 12.8609 28.723 13.6028C29.6232 13.9017 30.4961 14.2772 31.3322 14.7251L31.6322 15.425Z" fill="black"/>
<path d="M30.0454 11.0226C28.0943 10.782 26.2628 9.9529 24.7947 8.64558C24.4233 8.24653 24.1135 7.79432 23.8755 7.30389C24.0013 7.25873 24.1239 7.22004 24.2496 7.18134C24.9302 8.1747 25.8977 9.06809 26.475 9.35836C27.504 9.84624 28.6071 10.1591 29.739 10.284L30.0454 11.0226Z" fill="black"/>
<g opacity="0.4">
<path opacity="0.4" d="M28.2197 28.0227C28.2197 28.5065 27.5747 28.8967 26.7716 28.8967C25.9685 28.8967 25.3235 28.5065 25.3235 28.0227C25.3235 27.5389 25.9685 27.1519 26.7716 27.1519C27.5747 27.1519 28.2197 27.5421 28.2197 28.0227Z" fill="#DB5D7B"/>
<path opacity="0.4" d="M18.515 28.3356C18.515 28.8193 17.87 29.2096 17.0669 29.2096C16.2638 29.2096 15.622 28.8193 15.622 28.3356C15.622 27.8518 16.267 27.4648 17.0669 27.4648C17.8667 27.4648 18.515 27.855 18.515 28.3356Z" fill="#DB5D7B"/>
</g>
<path d="M22.979 27.01C22.6048 27.01 22.4113 27.3325 22.1307 27.4454C22.1475 26.9677 22.2145 26.4932 22.3307 26.0295C22.4005 25.483 22.4124 24.9305 22.3662 24.3814C22.3662 24.3814 22.3662 24.3814 22.3662 24.3621C22.3662 24.1234 22.2468 23.8912 21.992 24.146C21.7373 24.4008 21.7405 24.8201 21.7018 25.1361C21.6179 25.8102 21.7018 26.4585 21.5437 27.11C21.3341 26.9294 21.0987 26.7004 20.8406 26.852C20.4568 27.0777 20.7439 27.5551 20.9277 27.784C21.1535 28.0646 21.6792 28.6226 22.0953 28.5097C22.3684 28.4129 22.611 28.2456 22.7985 28.0246C22.986 27.8037 23.1117 27.5371 23.1628 27.2519C23.1701 27.2236 23.1709 27.194 23.1652 27.1653C23.1594 27.1367 23.1472 27.1097 23.1295 27.0864C23.1118 27.0631 23.0891 27.0441 23.063 27.0309C23.0369 27.0177 23.0082 27.0105 22.979 27.01Z" fill="#CD8B6D"/>
<path d="M19.4186 22.6398C18.7381 22.1012 17.906 22.1915 17.1061 22.3173C16.4611 22.4076 15.6096 22.6785 15.2194 23.2494C14.6227 24.1234 15.3903 24.733 15.7805 25.4877C15.845 25.6135 15.9837 25.5619 16.0257 25.4587C16.0454 25.4522 16.0631 25.4408 16.0772 25.4255C16.0913 25.4103 16.1013 25.3917 16.1063 25.3716C16.1478 25.2322 16.1706 25.088 16.174 24.9426C16.1824 24.9197 16.1824 24.8946 16.174 24.8717C16.3901 23.8686 17.3319 23.3526 18.3156 23.2945C19.2993 23.2365 19.4154 24.1428 19.6734 24.8878C19.6734 24.9071 19.6895 24.9265 19.696 24.9491C19.7024 24.9716 19.7476 25.0878 19.7766 25.1523C19.883 25.3748 19.8637 25.4135 20.241 25.0232C20.8538 24.3621 20.1959 23.2591 19.4186 22.6398Z" fill="#390A0A"/>
<path d="M15.8641 24.9071C15.8684 25.4514 16.0885 25.9718 16.4761 26.354C16.8637 26.7362 17.3871 26.9489 17.9315 26.9455C18.2013 26.9476 18.4688 26.8966 18.7189 26.7953C18.969 26.694 19.1967 26.5444 19.3889 26.3551C19.5812 26.1659 19.7343 25.9406 19.8395 25.6921C19.9447 25.4437 20 25.1769 20.0021 24.9071C20 24.6375 19.9447 24.3709 19.8395 24.1226C19.7342 23.8743 19.5811 23.6493 19.3887 23.4602C19.1964 23.2712 18.9687 23.122 18.7187 23.021C18.4686 22.9201 18.2011 22.8695 17.9315 22.872C17.6621 22.8699 17.3949 22.9208 17.1453 23.022C16.8956 23.1231 16.6683 23.2724 16.4763 23.4614C16.2843 23.6504 16.1314 23.8753 16.0264 24.1234C15.9214 24.3714 15.8662 24.6377 15.8641 24.9071Z" fill="white"/>
<path d="M19.3119 24.9845C19.3119 25.9005 18.7346 26.6423 18.0218 26.6423C17.3091 26.6423 16.7318 25.9005 16.7318 24.9845C16.7318 24.0686 17.3091 23.3268 18.0218 23.3268C18.7346 23.3268 19.3119 24.0686 19.3119 24.9845Z" fill="#5DB35D"/>
<path d="M19.1249 24.9845C19.1249 25.7779 18.6218 26.4198 18.0057 26.4198C17.3897 26.4198 16.8834 25.7747 16.8834 24.9845C16.8834 24.1943 17.3865 23.5461 18.0057 23.5461C18.625 23.5461 19.1249 24.1911 19.1249 24.9845Z" fill="#390A0A"/>
<path d="M18.5059 24.1911C18.7678 24.1911 18.98 24.0467 18.98 23.8686C18.98 23.6905 18.7678 23.5461 18.5059 23.5461C18.2441 23.5461 18.0318 23.6905 18.0318 23.8686C18.0318 24.0467 18.2441 24.1911 18.5059 24.1911Z" fill="white"/>
<path d="M23.4689 25.0103C23.8463 25.4006 23.8269 25.3619 23.9301 25.1394C23.9624 25.0749 23.9882 25.0039 24.014 24.9362C24.0398 24.8684 24.0301 24.8942 24.0366 24.8749C24.2946 24.1299 24.3591 23.2203 25.3944 23.2816C26.4297 23.3429 27.3295 23.8557 27.5359 24.8588C27.5221 24.8797 27.5164 24.9049 27.5198 24.9297C27.5232 25.0751 27.546 25.2193 27.5875 25.3587C27.5925 25.3788 27.6025 25.3974 27.6166 25.4126C27.6307 25.4278 27.6485 25.4392 27.6682 25.4457C27.7101 25.549 27.8488 25.6006 27.9133 25.4748C28.3035 24.7201 29.0711 24.1105 28.4713 23.2365C28.0842 22.6656 27.2199 22.3947 26.5877 22.3044C25.7846 22.1915 24.9558 22.1012 24.2752 22.6269C23.5044 23.2591 22.84 24.3621 23.4689 25.0103Z" fill="#390A0A"/>
<path d="M23.7918 24.9072C23.7961 25.4515 24.0162 25.9719 24.4038 26.354C24.7914 26.7362 25.3149 26.9489 25.8592 26.9455C26.4035 26.9489 26.927 26.7362 27.3146 26.354C27.7022 25.9719 27.9223 25.4515 27.9266 24.9072C27.9245 24.6378 27.8693 24.3715 27.7643 24.1234C27.6592 23.8753 27.5064 23.6504 27.3144 23.4614C27.1224 23.2724 26.8951 23.1231 26.6454 23.022C26.3957 22.9209 26.1286 22.8699 25.8592 22.872C25.5898 22.8699 25.3227 22.9209 25.073 23.022C24.8233 23.1231 24.596 23.2724 24.404 23.4614C24.212 23.6504 24.0592 23.8753 23.9541 24.1234C23.8491 24.3715 23.7939 24.6378 23.7918 24.9072Z" fill="white"/>
<path d="M27.1234 24.9845C27.1234 25.9005 26.5428 26.6423 25.8333 26.6423C25.1238 26.6423 24.5432 25.9005 24.5432 24.9845C24.5432 24.0686 25.1205 23.3268 25.8333 23.3268C26.5461 23.3268 27.1234 24.0686 27.1234 24.9845Z" fill="#5DB35D"/>
<path d="M26.9492 24.9845C26.9492 25.7779 26.4493 26.4198 25.8301 26.4198C25.2108 26.4198 24.7109 25.7747 24.7109 24.9845C24.7109 24.1943 25.2108 23.5461 25.8301 23.5461C26.4493 23.5461 26.9492 24.1911 26.9492 24.9845Z" fill="#390A0A"/>
<path d="M26.3331 24.1911C26.595 24.1911 26.8072 24.0467 26.8072 23.8686C26.8072 23.6905 26.595 23.5461 26.3331 23.5461C26.0713 23.5461 25.859 23.6905 25.859 23.8686C25.859 24.0467 26.0713 24.1911 26.3331 24.1911Z" fill="white"/>
<path d="M25.7819 29.2096C25.5698 29.9758 25.2723 30.7158 24.895 31.4156C24.8664 31.4767 24.8341 31.536 24.7982 31.593C23.8306 33.2798 22.0858 34.6763 19.583 31.135C19.5687 31.1122 19.5525 31.0906 19.5346 31.0705C19.2315 30.6319 18.9154 30.1191 18.5864 29.5256C18.7412 29.5772 22.7889 30.8964 25.7819 29.2096Z" fill="white"/>
<path d="M24.8949 31.4156C24.8664 31.4767 24.8341 31.536 24.7981 31.593C24.194 31.6558 23.5863 31.6785 22.9791 31.6607C21.818 31.6285 20.7215 31.3382 19.583 31.135C19.5687 31.1122 19.5525 31.0906 19.5346 31.0705C20.488 31.3038 21.4587 31.4591 22.4373 31.535C23.2582 31.5514 24.0794 31.5115 24.8949 31.4156Z" fill="#CD8B6D"/>
<path d="M14.1933 23.8622C14.1933 23.8622 13.8095 19.6436 19.9568 21.798C20.0389 21.4521 20.0865 21.0988 20.0987 20.7434C20.0632 20.5112 13.3612 18.8437 14.1933 23.8622Z" fill="#390A0A"/>
<path d="M29.7971 23.8622C29.7971 23.8622 30.1809 19.6436 24.0336 21.798C23.9516 21.4519 23.903 21.0988 23.8885 20.7434C23.9272 20.5112 30.6292 18.8437 29.7971 23.8622Z" fill="#390A0A"/>
</g>
</svg>
